<svg width="512" height="512" viewBox="0 0 512 512" fill="none" xmlns="http://www.w3.org/2000/svg">
  <rect width="512" height="512" rx="15" fill="#F3F4F6"/>
  <path d="M256 128C238.3 128 224 142.3 224 160C224 177.7 238.3 192 256 192C273.7 192 288 177.7 288 160C288 142.3 273.7 128 256 128ZM256 320C203 320 160 277 160 224C160 171 203 128 256 128C309 128 352 171 352 224C352 277 309 320 256 320Z" fill="#3B82F6"/>
  <path d="M256 352C194.1 352 144 302.9 144 240C144 177.1 194.1 128 256 128C317.9 128 368 177.1 368 240C368 302.9 317.9 352 256 352ZM256 144C203 144 160 187 160 240C160 293 203 336 256 336C309 336 352 293 352 240C352 187 309 144 256 144Z" fill="#3B82F6"/>
  <path d="M256 384C176.5 384 112 319.5 112 240C112 160.5 176.5 96 256 96C335.5 96 400 160.5 400 240C400 319.5 335.5 384 256 384ZM256 112C185.3 112 128 169.3 128 240C128 310.7 185.3 368 256 368C326.7 368 384 310.7 384 240C384 169.3 326.7 112 256 112Z" fill="#3B82F6"/>
  <path d="M144 368H368V384H144V368Z" fill="#3B82F6"/>
  <path d="M208 384H304V400H208V384Z" fill="#3B82F6"/>
  <path d="M240 400H272V416H240V400Z" fill="#3B82F6"/>
  <path d="M176 208H336V224H176V208Z" fill="#3B82F6"/>
  <path d="M176 240H336V256H176V240Z" fill="#3B82F6"/>
  <path d="M176 272H336V288H176V272Z" fill="#3B82F6"/>
  <path d="M176 304H272V320H176V304Z" fill="#3B82F6"/>
</svg> 